<?xml version="1.0" encoding="UTF-8" standalone="no"?>
<!-- Created with Inkscape (http://www.inkscape.org/) -->

<svg
   xmlns:dc="http://purl.org/dc/elements/1.1/"
   xmlns:cc="http://creativecommons.org/ns#"
   xmlns:rdf="http://www.w3.org/1999/02/22-rdf-syntax-ns#"
   xmlns:svg="http://www.w3.org/2000/svg"
   xmlns="http://www.w3.org/2000/svg"
   xmlns:sodipodi="http://sodipodi.sourceforge.net/DTD/sodipodi-0.dtd"
   xmlns:inkscape="http://www.inkscape.org/namespaces/inkscape"
   width="3.9400001in"
   height="8.2799997in"
   viewBox="0 0 354.60001 745.19999"
   id="svg2"
   version="1.1"
   inkscape:version="0.91 r"
   sodipodi:docname="front_cover_reg.svg">
  <defs
     id="defs4">
    <filter
       style="color-interpolation-filters:sRGB;"
       inkscape:label="Drop Shadow"
       id="filter4324">
      <feFlood
         flood-opacity="1"
         flood-color="rgb(255,255,255)"
         result="flood"
         id="feFlood4326" />
      <feComposite
         in="flood"
         in2="SourceGraphic"
         operator="out"
         result="composite1"
         id="feComposite4328" />
      <feGaussianBlur
         in="composite1"
         stdDeviation="2.1"
         result="blur"
         id="feGaussianBlur4330" />
      <feOffset
         dx="4.7"
         dy="5"
         result="offset"
         id="feOffset4332" />
      <feComposite
         in="offset"
         in2="SourceGraphic"
         operator="atop"
         result="composite2"
         id="feComposite4334" />
    </filter>
  </defs>
  <sodipodi:namedview
     id="base"
     pagecolor="#ffffff"
     bordercolor="#666666"
     borderopacity="1.0"
     inkscape:pageopacity="0.0"
     inkscape:pageshadow="2"
     inkscape:zoom="0.98994949"
     inkscape:cx="274.10445"
     inkscape:cy="473.8624"
     inkscape:document-units="px"
     inkscape:current-layer="layer1"
     showgrid="false"
     units="in"
     inkscape:window-width="1200"
     inkscape:window-height="1893"
     inkscape:window-x="1600"
     inkscape:window-y="0"
     inkscape:window-maximized="1" />
  <metadata
     id="metadata7">
    <rdf:RDF>
      <cc:Work
         rdf:about="">
        <dc:format>image/svg+xml</dc:format>
        <dc:type
           rdf:resource="http://purl.org/dc/dcmitype/StillImage" />
        <dc:title></dc:title>
      </cc:Work>
    </rdf:RDF>
  </metadata>
  <g
     inkscape:label="Layer 1"
     inkscape:groupmode="layer"
     id="layer1"
     transform="translate(0,-307.16215)">
    <g
       transform="matrix(1.2500001,0,0,-1.2500001,71.785327,447.41881)"
       inkscape:label="ink_ext_XXXXXX"
       id="g4198">
      <g
         transform="scale(0.1,0.1)"
         id="g4200">
        <path
           inkscape:connector-curvature="0"
           id="path4202"
           style="fill:#5087ce;fill-opacity:1;fill-rule:nonzero;stroke:none"
           d="m 518.066,344.609 5.407,-2.808 -0.543,-0.629 c -1.758,-2.117 -2.543,-3.219 -3.367,-5.641 -0.422,-1.097 -0.915,-3.176 -0.09,-4.765 0.394,-0.856 1.117,-1.465 2.16,-1.789 2.394,-0.817 4.465,1.281 6.847,3.722 3.333,3.379 7.454,7.555 14.118,5.293 6.765,-2.301 9.062,-8.324 6.269,-16.527 -0.847,-2.485 -2.398,-4.645 -3.828,-6.598 l -0.332,-0.429 -5.586,2.589 0.559,0.649 c 0.664,0.797 3,3.547 3.871,6.23 0.847,2.383 0.765,6.41 -2.863,7.637 -2.997,1.035 -5.258,-1.285 -7.879,-3.992 -3.192,-3.363 -6.856,-7.145 -12.899,-5.071 -2.648,0.879 -4.637,2.586 -5.762,4.825 -1.359,2.73 -1.398,6.25 -0.14,9.898 0.812,2.481 2.176,5.024 3.75,7 l 0.308,0.406 z m -13.656,-30.25 31.524,-18.261 -3.215,-5.555 -31.688,18.34 3.379,5.476 z m -12.445,-18.121 27.223,-24.285 -4.911,-5.742 c 0,0 -25.515,7.473 -29.394,8.512 2.883,-2.77 18.715,-19.446 18.715,-19.446 l -4.782,-4.336 -25.648,26.079 6.02,5.378 c 0,0 24.64,-7.347 28.511,-8.351 -2.879,2.711 -19.879,17.332 -19.879,17.332 l 4.145,4.859 z m -32.086,-55.715 c 0.934,0.446 3.351,1.747 5.758,3.192 2.152,1.305 3.867,2.383 4.734,3.098 -1.262,0.937 -11.012,8.363 -13.035,9.91 0.414,-2.543 2.293,-14.633 2.543,-16.2 z m -3.578,24.204 31.215,-22.864 -5.547,-3.89 c 0,0 -6.278,4.746 -6.895,5.234 -0.371,-0.223 -3.586,-2.484 -7.062,-4.539 -3.27,-1.973 -6.813,-3.746 -7.16,-3.949 0.148,-0.793 1.371,-8.449 1.371,-8.449 l -5.961,-2.852 -5.242,38.277 5.281,3.032 z m -34.84,-21.641 c 0.312,-1.059 2.957,-9.508 3.269,-10.547 1.325,0.387 4.2,1.285 4.2,1.285 0.953,0.281 3.215,1.18 4.289,3.254 0.351,0.676 0.543,1.406 0.543,2.199 0,0.59 -0.129,1.184 -0.321,1.856 -0.41,1.222 -1.152,2.18 -2.293,2.769 -1.945,1.036 -4.554,0.789 -6.187,0.282 0,0 -2.606,-0.817 -3.5,-1.098 z m 13.375,6.531 c 2.355,-1.238 4.074,-3.433 5.008,-6.551 0.414,-1.304 0.64,-2.57 0.64,-3.789 0,-5.031 -3.519,-9 -9.875,-10.972 0,0 -3.207,-0.996 -4.16,-1.301 0.371,-1.141 4.16,-13.336 4.16,-13.336 l -6.312,-1.625 -10.703,34.668 9.566,2.973 c 4.778,1.504 8.754,1.484 11.676,-0.067 z m -113.703,7.274 c 0,0 5.832,-2.914 14.109,-5.743 5.653,-1.953 10.461,-3.48 15.156,-4.523 l -1.632,-5.473 c 0,0 -4.493,0.789 -11.801,3.012 -0.41,-1.199 -9.914,-28.34 -9.914,-28.34 l -6.5,2.262 c 0,0 9.461,27.18 9.875,28.359 -6.813,2.543 -11.555,5.071 -11.555,5.071 l 2.262,5.375 z m -38.731,-2.18 c 0.641,-0.551 2.981,-2.426 5.403,-4.152 2.461,-1.711 4.922,-3.34 5.648,-3.688 0.352,1.609 2.879,14.129 3.395,16.43 -2.051,-1.223 -13,-7.715 -14.446,-8.59 z m 15.957,16.184 5.465,-3.907 -7.082,-38.07 -6.269,3.602 c 0,0 1.574,7.757 1.757,8.492 -0.304,0.261 -3.953,2.441 -7.496,4.945 -3.601,2.563 -7.097,5.453 -7.429,5.68 -0.68,-0.407 -7.614,-4.524 -7.614,-4.524 l -5.367,4.586 33.68,18.969 0.355,0.227 z m -25.586,24.207 4.391,-5.317 -27.617,-23.066 -4.469,5.297 27.363,22.863 0.332,0.223 z m -19.957,32.371 c 0,0 2.797,-5.95 5.075,-10.184 2.254,-4.215 5.339,-9.301 5.339,-9.301 l -4.988,-2.914 c 0,0 -3.789,6.313 -7.265,13.621 -0.954,-0.488 -6.934,-3.601 -7.93,-4.09 0.582,-1.058 6.711,-12.886 6.711,-12.886 l -5.055,-2.914 c 0,0 -6.207,12.074 -6.75,13.109 -1.074,-0.547 -13.969,-7.184 -13.969,-7.184 l -3.086,6.129 31.567,16.426 0.351,0.188 z m 318.454,55.84 c 0,56.453 -24.883,107.16 -64.192,141.855 L 431.313,332.68 c 5.031,-31.453 -4.282,-56.696 -26.911,-64.207 -14.652,-4.844 -15.461,-12.258 -15.461,-34.2 0,-1.203 0,1.645 0,-2.628 0,-15.614 1.18,-28.911 2.258,-37.196 100.078,4.727 180.071,87.621 180.071,188.864 z m -188.418,5.292 0.894,7.188 c 3.664,16.629 15.758,14.574 24.137,30.922 0.043,0.062 0.14,0.242 0.14,0.242 0.247,0.594 41.336,88.742 58.481,125.566 -25.399,12.707 -54.024,19.875 -84.332,19.875 -30.281,0 -58.93,-7.168 -84.352,-19.875 17.141,-36.824 58.211,-124.972 58.543,-125.566 0,0 0.078,-0.18 0.121,-0.242 8.34,-16.348 20.411,-14.293 24.079,-30.922 l 0.886,-7.188 1.403,0 z m -0.801,-22.335 c -12.778,2.851 -28.692,15.554 -30.762,31.859 -0.746,6.23 -1.348,7.941 -0.434,20.301 l -58.082,131.472 c -4.683,-2.523 -9.238,-5.254 -13.707,-8.164 17.372,-39.047 70.465,-158.261 70.504,-158.386 8.403,-17.711 23.145,-18.059 28.235,-28.582 3.062,-6.27 3.332,-11.848 3.379,-12.321 l 1.941,0 c 0.039,0.473 0.352,6.051 3.375,12.321 5.109,10.523 19.852,10.871 28.23,28.582 0.043,0.125 53.161,119.339 70.508,158.386 -4.41,2.91 -9.008,5.641 -13.707,8.164 L 413.512,418.43 c 0.914,-12.36 0.312,-14.071 -0.5,-20.301 -2.071,-16.305 -17.985,-29.008 -30.692,-31.859 l -0.269,0 z m 0.039,-49.082 c -30.117,7 -41.297,34.449 -41.297,58.835 L 274.512,538.66 c -4.324,-2.992 -8.528,-6.164 -12.586,-9.504 14.578,-34.527 80.008,-189.777 80.086,-190.019 11.574,-27.871 32.644,-18.629 37.738,-41.676 1.223,-5.559 1.305,-7.996 1.305,-7.996 l 2.258,0 c 0,0 0.042,2.437 1.3,7.996 5.098,23.047 26.106,13.805 37.696,41.676 0.086,0.242 65.511,155.492 80.07,190.019 -4.059,3.34 -8.238,6.512 -12.59,9.504 L 423.531,376.023 c 0,-24.386 -11.195,-51.835 -41.32,-58.835 l -0.121,0 z m -8.985,-122.739 c 1.137,8.285 2.254,21.582 2.254,37.196 0,4.273 0,1.425 0,2.628 0,21.942 -0.804,29.356 -15.457,34.2 -22.629,7.511 -31.879,32.754 -26.91,64.207 l -75.703,192.488 c -39.375,-34.695 -64.215,-85.402 -64.215,-141.855 0,-101.243 80.012,-184.137 180.031,-188.864 z m 127.801,219.867 c 0,16.469 4.035,29.825 15.672,29.825 11.676,0 15.871,-13.356 15.871,-29.825 0,-16.449 -4.195,-29.843 -15.871,-29.843 -11.637,0 -15.672,13.394 -15.672,29.843 z m -20.656,0 c 0,-25.16 11.676,-44.296 36.328,-44.296 24.711,0 36.512,19.136 36.512,44.296 0,25.18 -11.801,44.321 -36.512,44.321 -24.652,0 -36.328,-19.141 -36.328,-44.321 z m -89.82,83.899 -17.817,0 8.301,37.273 1.359,0 8.157,-37.273 z m 8.511,-33.652 20.45,0 -23.762,85.707 -26.149,0 -24.625,-85.707 18.938,0 5.441,19.152 24.797,0 4.91,-19.152 z m -177.668,-93.098 19.391,0 0,35.848 32.59,0 0,14.984 -32.59,0 0,19.91 33.66,0 0,14.961 -53.051,0 0,-85.703 z m 160.09,95.68 c 0.27,0 17.266,-18.219 17.266,-32.774 0,-15.777 -12.297,-19.547 -16.457,-19.547 -0.207,0 -0.457,0.02 -0.723,0.043 l -0.164,0 c -0.273,-0.023 -0.543,-0.043 -0.722,-0.043 -4.141,0 -16.461,3.77 -16.461,19.547 0,14.555 16.953,32.774 17.261,32.774 z m 0.809,-296.43 c -117.227,0 -212.606,95.375 -212.606,212.598 0,117.218 95.379,212.593 212.606,212.593 117.226,0 212.59,-95.375 212.59,-212.593 0,-117.223 -95.364,-212.598 -212.59,-212.598" />
        <path
           inkscape:connector-curvature="0"
           id="path4204"
           style="fill:#5087ce;fill-opacity:1;fill-rule:nonzero;stroke:none"
           d="m 725.973,469.27 9.402,4.824 c 3.438,-4.93 8.023,-11.707 11.582,-17.324 l -9.984,-4.93 c -3.426,5.855 -7.215,11.808 -11,17.43 z m -2.871,-18.122 27.976,0 c 4.82,7.918 9.176,15.493 12.735,22.946 l 10.894,-4.246 c -3.785,-6.078 -7.797,-12.614 -11.695,-18.7 l 15.355,0 0,-10.543 -23.039,0 0,-14.113 c 0,-1.137 0,-2.289 -0.113,-3.312 l 26.371,0 0,-10.668 -25.801,0 c 4.93,-17.203 11.348,-25.227 26.945,-34.172 -2.402,-3.676 -4.468,-6.992 -6.757,-11.004 -14.457,9.973 -21.676,18.457 -26.266,32.676 -3.672,-13.196 -10.781,-22.02 -25.914,-33.489 -1.836,2.524 -4.926,6.543 -7.684,9.977 17.204,11.133 24.426,21.219 26.719,36.012 l -22.711,0 0,10.668 23.516,0 c 0,0.222 0.105,0.566 0.105,0.914 l 0.114,16.511 -20.75,0 0,10.543 z m -18.457,-54.8 0,14.211 -13.762,0 0,-16.516 13.762,2.305 z m -13.762,23.265 13.762,0 0,14.453 -13.762,0 0,-14.453 z m 0,23.516 13.762,0 0,14.566 -13.762,0 0,-14.566 z m -16.055,24.652 45.746,0 0,-10.086 -5.844,0 0,-59.636 7.911,1.492 c -0.114,-4.121 -0.114,-7.215 -0.114,-10.434 l -7.797,-1.375 0,-21.097 -10.085,0 0,19.257 c -9.407,-1.707 -18.809,-3.441 -29.247,-5.496 l -1.605,11.114 6.883,1.039 0,65.136 -5.848,0 0,10.086" />
        <path
           inkscape:connector-curvature="0"
           id="path4206"
           style="fill:#5087ce;fill-opacity:1;fill-rule:nonzero;stroke:none"
           d="m 840.391,437.855 51.718,0 c -10.543,6.993 -18.574,14.454 -25.566,23.391 -7.34,-8.601 -15.828,-16.285 -26.152,-23.391 z m -2.524,-54.355 55.856,0 0,20.863 -55.856,0 0,-20.863 z m -12.031,31.758 80.039,0 0,-48.836 -12.152,0 0,6.297 -55.856,0 0,-6.297 -12.031,0 0,48.836 z m 70.41,19.953 0,-8.023 -60.558,0 0,7.453 c -5.383,-3.446 -11.235,-6.883 -17.54,-10.325 -1.832,3.329 -4.355,7.227 -6.765,10.895 24.765,11.703 41.285,25.578 50.457,40.258 l 14.332,-1.153 -3.098,-4.582 c 11.129,-13.418 26.266,-24.425 47.242,-32.683 -2.289,-3.438 -4.578,-7.227 -6.871,-11.235 -6.425,3.09 -12.16,6.196 -17.199,9.395" />
        <path
           inkscape:connector-curvature="0"
           id="path4208"
           style="fill:#5087ce;fill-opacity:1;fill-rule:nonzero;stroke:none"
           d="m 972.82,450.469 61.13,0 0,-9.864 -25.46,0 0,-11.699 23.5,0 0,-9.863 -23.5,0 0,-17.551 15.7,0 c -3.89,4.485 -7.45,8.035 -10.54,11.02 l 6.31,5.508 c 3.9,-3.332 7.45,-6.649 11.24,-10.559 l -6.77,-5.969 10.89,0 0,-9.972 -63.64,0 0,9.972 25.336,0 0,17.551 -22.129,0 0,9.863 22.129,0 0,11.699 -24.196,0 0,9.864 z m -6.3,-68.008 73.96,0 0,76.953 -73.96,0 0,-76.953 z m -12.043,87.5 98.283,0 0,-103.539 -12.28,0 0,5.613 -73.96,0 0,-5.613 -12.043,0 0,103.539" />
        <path
           inkscape:connector-curvature="0"
           id="path4210"
           style="fill:#5087ce;fill-opacity:1;fill-rule:nonzero;stroke:none"
           d="m 1176.91,421.914 0,11.238 -34.98,0 0,-11.238 34.98,0 z m -34.98,20.524 34.98,0 0,11.015 -34.98,0 0,-11.015 z m 8.61,-30.387 -8.61,0 0,-30.274 c 5.29,1.95 12.5,4.821 18.47,7.118 0,-3.336 -0.11,-7.918 0.11,-11.473 l -19.26,-7.227 c -3.33,-1.371 -5.85,-2.636 -8.03,-3.894 l -5.96,8.941 c 2.52,1.946 3.78,4.93 3.78,8.828 l 0,79.352 22.37,0 c -0.92,3.441 -1.96,6.773 -2.87,9.976 l 12.5,1.266 c 1.03,-3.668 2.06,-7.574 2.87,-11.242 l 21.9,0 0,-51.371 -26.37,0 c 1.94,-5.508 4.01,-10.086 6.65,-13.992 6.18,4.129 12.84,8.718 18.8,13.191 l 7.11,-8.023 c -5.96,-3.789 -12.73,-8.145 -19.84,-12.387 5.16,-4.817 11.93,-8.715 21.33,-12.387 -2.18,-3.555 -4.47,-7.453 -5.96,-10.547 -22.6,10.321 -32.11,21.324 -38.99,44.145 z m -36.92,31.426 c 3.2,8.015 5.61,14.453 7.9,22.015 l 7.34,-2.289 c -2.18,-7.117 -5.27,-15.371 -7.9,-22.363 l -7.34,2.637 z m -1.04,-35.434 0,-41.289 -10.2,0 0,37.848 c -3.33,-8.254 -7.46,-15.485 -12.5,-22.825 -1.04,4.594 -2.64,9.524 -3.67,12.836 6.88,9.188 11.35,17.899 15.47,30.399 l -13.87,0 0,9.972 14.57,0 0,39.11 10.2,0 0,-39.11 13.65,0 0,-9.972 -13.65,0 0,-11.117 4.36,3.664 c 4.47,-4.825 8.94,-9.977 12.96,-14.903 L 1122.09,396 c -3.09,4.133 -6.29,8.141 -9.51,12.043 z m -26.49,55.273 7.12,2.067 c 2.75,-7.453 5.38,-15.149 7.34,-21.906 l -7.58,-2.637 c -2.17,7.793 -4.13,14.332 -6.88,22.476" />
        <path
           inkscape:connector-curvature="0"
           id="path4212"
           style="fill:#5087ce;fill-opacity:1;fill-rule:nonzero;stroke:none"
           d="m 1277.47,385.105 c -4.83,1.833 -9.52,3.79 -14.22,5.5 l 4.92,8.145 c 8.26,-2.871 16.51,-5.73 24.66,-8.715 6.42,3.328 12.04,6.426 17.43,9.629 l -58.48,0 0,-20.062 c 7.8,1.597 15.59,3.207 25.69,5.503 z m -25.69,23.274 52.86,0 0,8.609 -52.86,0 0,-8.609 z m 0,16.633 52.86,0 0,8.488 -52.86,0 0,-8.488 z m 30.27,17.199 26.26,0 c -11.13,5.5 -19.73,11.695 -28.78,20.871 -8.03,-8.144 -17.32,-14.68 -29.02,-20.871 l 25.24,0 c -1.16,3.32 -2.76,7.574 -4.25,10.894 l 11.13,1.833 c 1.83,-4.235 3.2,-8.024 4.36,-11.684 l -4.94,-1.043 z m -4.36,-57.106 c -0.11,-4.007 -0.11,-7.347 0,-10.886 -9.52,-1.614 -20.06,-3.91 -26.48,-5.395 -2.76,-0.695 -6.31,-1.836 -9.3,-3.219 l -5.73,9.18 c 2.99,2.403 4.13,4.703 4.13,9.41 l 0,52.856 c -3.56,-1.598 -7.22,-3.207 -11.12,-4.817 -1.5,3.098 -3.79,6.758 -5.73,10.204 26.14,9.636 41.73,19.847 51.94,32.917 l 13.99,-1.039 -2.86,-3.664 c 13.06,-12.957 26.25,-19.722 47.01,-26.039 -1.84,-3.441 -3.67,-7.215 -5.16,-10.769 -4.47,1.609 -8.49,3.207 -12.27,4.804 l 0,-36.918 6.77,-6.996 c -5.86,-3.312 -11.82,-6.304 -17.78,-9.281 7.57,-2.871 15.14,-5.617 22.48,-8.488 l -5.29,-9.863 c -14.67,6.078 -29.81,12.261 -44.6,18.003" />
        <path
           inkscape:connector-curvature="0"
           id="path4214"
           style="fill:#5087ce;fill-opacity:1;fill-rule:nonzero;stroke:none"
           d="m 1397.16,442.672 3.9,2.98 c 6.99,-20.183 15.37,-34.75 26.72,-45.297 8.38,7.575 14.68,16.165 19.5,26.262 l -23.62,0 0,10.781 12.61,19.715 -38.53,0 c -0.12,-4.804 -0.23,-9.629 -0.58,-14.441 z m -11.69,-65.363 c 13.19,4.468 23.97,9.629 32.68,15.597 -9.29,9.403 -16.4,20.867 -22.13,35.199 -2.76,-25.57 -9.29,-41.289 -25.8,-61.003 -2.76,3.207 -5.97,6.769 -8.84,9.519 16.64,19.258 22.14,33.832 23.74,66.734 0.24,3.672 0.35,8.719 0.46,13.758 l -17.54,0 0,11.129 82.67,0 0,-11.812 -12.26,-19.032 22.82,0 0,-10.668 c -6.66,-13.996 -14.11,-24.89 -23.74,-34.058 9.17,-6.074 19.96,-10.313 32.91,-13.418 l -6.77,-11.918 c -14.44,4.465 -26.26,10.086 -35.89,17.199 -9.52,-7 -20.98,-12.84 -35.32,-18.582 -1.38,2.301 -4.7,8.145 -6.99,11.356" />
        <path
           inkscape:connector-curvature="0"
           id="path4216"
           style="fill:#5087ce;fill-opacity:1;fill-rule:nonzero;stroke:none"
           d="m 724.016,296.16 c -3.778,-7 -8.481,-13.531 -14.332,-19.847 l 4.812,0 0,-28.09 c 5.051,1.832 16.981,6.656 24.891,9.636 0.109,-4.464 0.343,-8.254 0.918,-12.5 -8.258,-2.757 -19.731,-7.222 -26.832,-10.32 -3.789,-1.492 -6.317,-3.098 -8.606,-4.812 l -7.226,10.086 c 3.332,2.636 4.703,5.96 4.703,12.164 l 0,16.621 c -6.531,-5.961 -14.219,-11.817 -23.391,-17.66 -1.609,3.664 -3.785,7.671 -5.965,11.585 25.235,15.024 38.871,31.188 45.992,50.915 l -26.042,0 0,-16.172 -12.153,0 0,27.289 41.512,0 c 1.148,4.476 1.84,9.179 2.297,13.992 l 12.961,0 c -0.809,-4.813 -1.719,-9.516 -2.758,-13.992 l 42.66,0 0,-23.742 -12.152,0 0,12.625 -33.719,0 c -0.234,-0.801 -0.453,-1.731 -0.801,-2.528 3.324,-11.582 7.113,-20.984 12.043,-28.894 7.449,4.812 15.824,10.433 22.477,15.593 l 8.363,-8.949 c -6.648,-4.812 -15.016,-10.32 -23.961,-15.937 8.258,-9.176 18.922,-16.391 33.824,-23.274 -3.093,-4.129 -5.726,-8.031 -7.672,-11.136 -29.703,16.066 -42.894,31.203 -51.843,57.347" />
        <path
           inkscape:connector-curvature="0"
           id="path4218"
           style="fill:#5087ce;fill-opacity:1;fill-rule:nonzero;stroke:none"
           d="m 888.102,272.426 c 5.273,11.461 12.613,29.703 18.23,45.301 l 11.125,-4.028 c -6.074,-16.508 -12.848,-33.472 -18.352,-45.863 l -11.003,4.59 z m -73.043,41.734 10.777,3.789 c 5.957,-15.25 12.031,-31.761 17.078,-46.215 l -11.461,-4.007 c -4.933,14.902 -10.777,31.41 -16.394,46.433 z m -2.414,-65.469 32.558,0 0,88.75 12.164,0 0,-88.75 17.086,0 0,88.75 12.152,0 0,-88.75 32.793,0 0,-11.82 -106.753,0 0,11.82" />
        <path
           inkscape:connector-curvature="0"
           id="path4220"
           style="fill:#5087ce;fill-opacity:1;fill-rule:nonzero;stroke:none"
           d="m 1006.77,246.273 30.73,0 0,18.805 -30.73,0 0,-18.805 z m 0,29.125 30.73,0 0,18.688 -30.73,0 0,-18.688 z m 0,28.911 30.73,0 0,18.687 -30.73,0 0,-18.687 z m -57.454,-53.786 c 11.465,1.372 24.305,3.094 38.532,5.153 -0.348,-3.321 -0.461,-6.305 -0.461,-9.403 l 7.453,0 0,87.266 54.48,0 0,-87.266 8.47,0 0,-10.898 -73.149,0 0,8.609 c -10.672,-1.382 -22.598,-3.324 -33.493,-5.171 l -1.832,11.71 z m 1.032,23.04 c 2.636,1.613 5.047,4.015 7.918,7.574 2.98,3.789 6.644,8.718 10.195,13.992 -7.106,-0.348 -12.266,-0.809 -16.508,-1.492 l -2.984,10.433 c 2.07,1.598 3.902,4.121 6.191,7.91 4.59,7.004 10.445,17.43 14.914,27.301 l 12.153,-4.015 c -6.536,-10.661 -13.985,-22.024 -20.184,-30.387 3.781,0.109 8.832,0.223 13.078,0.57 2.18,3.438 4.242,6.879 6.301,10.43 l 10.668,-4.691 c -8.606,-12.965 -18.469,-26.497 -26.152,-36.239 6.546,0.688 14,1.364 21.226,2.281 -0.348,-3.542 -0.582,-6.98 -0.695,-10.421 -16.629,-1.383 -25.567,-2.528 -32.684,-3.911 l -3.437,10.665" />
        <path
           inkscape:connector-curvature="0"
           id="path4222"
           style="fill:#5087ce;fill-opacity:1;fill-rule:nonzero;stroke:none"
           d="m 1164.3,262.676 9.97,6.074 c 8.26,-10.777 14.91,-19.613 21.68,-29.121 l -10.66,-7.113 c -6.08,9.293 -13.07,19.492 -20.99,30.16 z m -20.53,22.699 32.8,0 0,35.785 -32.8,0 0,-35.785 z m -12.04,46.68 56.88,0 0,-57.575 -56.88,0 0,57.575 z m -10.55,-93.34 c 8.49,9.281 15.48,18.219 23.17,30.035 l 10.54,-5.961 c -8.13,-11.922 -15.59,-22.019 -23.61,-31.535 l -10.1,7.461 z m -33.94,10.543 c 11.12,1.609 24.2,3.555 37.61,5.73 -0.11,-3.675 -0.23,-7.562 -0.11,-11.234 -12.04,-1.836 -25,-4.012 -35.44,-6.078 l -2.06,11.582 z m 1.6,23.851 c 2.18,1.496 4.13,3.329 6.42,6.2 3.33,4.011 7.23,9.39 11.24,15.472 -7.67,-0.461 -12.72,-0.918 -16.86,-1.605 l -2.97,10.316 c 1.84,1.496 3.67,3.91 6.19,7.918 4.93,7.227 10.2,17.43 14.44,27.871 l 12.28,-4.015 c -6.66,-11.356 -13.41,-22.024 -19.61,-30.856 3.67,0.121 8.6,0.235 12.84,0.469 2.07,3.437 4.01,6.879 5.97,10.434 l 10.78,-4.594 c -8.15,-12.61 -16.52,-24.531 -25.35,-36.239 l 20.3,1.833 c -0.35,-3.661 -0.57,-7.102 -0.57,-10.321 -15.83,-1.137 -24.2,-2.179 -31.66,-3.316 l -3.44,10.433" />
      </g>
    </g>
    <text
       xml:space="preserve"
       style="font-style:normal;font-variant:normal;font-weight:normal;font-stretch:normal;font-size:126.63378906px;line-height:125%;font-family:'PT Sans';-inkscape-font-specification:'PT Sans';text-align:start;letter-spacing:0px;word-spacing:0px;writing-mode:lr-tb;text-anchor:start;fill:none;fill-opacity:1;stroke:#000000;stroke-width:4.30000026;stroke-linecap:butt;stroke-linejoin:miter;stroke-opacity:1;filter:url(#filter4324);stroke-miterlimit:4;stroke-dasharray:none"
       x="37.253975"
       y="726.98737"
       id="text4636"
       sodipodi:linespacing="125%"><tspan
         sodipodi:role="line"
         id="tspan4638"
         x="37.253975"
         y="726.98737"
         style="font-style:normal;font-variant:normal;font-weight:normal;font-stretch:normal;font-size:126.63388062px;line-height:125%;font-family:Bangers;-inkscape-font-specification:'Bangers, Normal';text-align:start;writing-mode:lr-tb;text-anchor:start;fill:none;stroke:#000000;stroke-opacity:1;stroke-width:4.30000026;stroke-miterlimit:4;stroke-dasharray:none">Front</tspan></text>
  </g>
</svg>
